<?xml version="1.0" standalone="no"?>
<!DOCTYPE svg PUBLIC "-//W3C//DTD SVG 20010904//EN"
 "http://www.w3.org/TR/2001/REC-SVG-20010904/DTD/svg10.dtd">
<svg version="1.0" xmlns="http://www.w3.org/2000/svg"
 width="300.000000pt" height="312.000000pt" viewBox="0 0 300.000000 312.000000"
 preserveAspectRatio="xMidYMid meet">
<metadata>
Created by potrace 1.10, written by Peter Selinger 2001-2011
</metadata>
<g transform="translate(0.000000,312.000000) scale(0.100000,-0.100000)"
fill="#000000" stroke="#000000">
<path d="M1152 2789 c-70 -9 -124 -48 -174 -126 -85 -130 -94 -333 -21 -489
54 -118 164 -194 258 -179 170 27 283 248 246 483 -11 71 -54 175 -89 217 -57
69 -141 105 -220 94z m117 -38 c165 -85 230 -374 131 -578 -140 -285 -448
-159 -467 192 -6 102 6 176 41 251 27 58 84 120 130 140 45 19 120 17 165 -5z"/>
<path d="M1703 2752 c-67 -28 -121 -84 -160 -169 -31 -67 -36 -89 -40 -177 -7
-121 11 -200 62 -291 57 -100 127 -145 227 -145 66 0 92 12 152 73 158 159
153 489 -10 651 -46 45 -114 77 -163 75 -14 0 -45 -8 -68 -17z m177 -41 c86
-51 149 -179 157 -321 9 -140 -36 -270 -117 -344 -51 -46 -77 -56 -144 -56
-136 0 -242 149 -253 355 -8 146 29 255 115 338 71 70 156 79 242 28z"/>
<path d="M2235 2425 c-43 -21 -135 -107 -135 -126 0 -4 -10 -28 -22 -55 -12
-27 -21 -59 -19 -71 1 -13 -1 -23 -6 -23 -4 0 -5 -51 -2 -112 9 -163 41 -245
127 -323 54 -49 82 -61 149 -64 113 -5 210 84 259 238 20 60 26 203 12 266
-17 81 -63 171 -109 214 -86 82 -165 100 -254 56z m190 -30 c175 -102 217
-445 77 -629 -100 -132 -259 -126 -354 13 -60 87 -72 133 -73 277 l0 130 38
77 c75 152 193 202 312 132z"/>
<path d="M604 2430 c-128 -27 -220 -168 -231 -355 -6 -101 8 -178 48 -263 38
-78 83 -124 157 -158 63 -29 87 -30 149 -6 89 34 167 144 194 270 16 79 7 223
-20 292 -27 72 -77 146 -122 182 -39 32 -120 49 -175 38z m155 -53 c84 -56
140 -176 149 -318 8 -146 -34 -267 -121 -344 -165 -149 -377 10 -394 295 -18
286 184 487 366 367z"/>
<path d="M1850 1758 c-98 -10 -203 -49 -282 -104 -68 -47 -85 -53 -94 -29 -4
8 -12 15 -20 15 -8 0 -14 5 -14 10 0 6 -5 10 -11 10 -6 0 -25 10 -42 23 -92
64 -303 97 -406 61 -86 -29 -150 -65 -192 -107 -191 -191 -208 -454 -45 -709
96 -151 265 -330 446 -473 123 -98 161 -126 234 -173 l69 -45 46 24 c24 13 74
46 110 72 36 27 75 54 86 59 11 6 22 14 25 17 3 4 39 35 80 69 121 101 276
260 350 357 151 200 208 388 165 545 -10 36 -18 75 -19 87 -1 11 -4 19 -7 17
-3 -2 -12 9 -18 23 -14 32 -70 105 -88 116 -7 4 -13 15 -13 24 0 9 -3 13 -7
10 -3 -4 -14 -1 -22 7 -27 25 -159 86 -185 86 -14 0 -35 4 -48 8 -13 4 -57 5
-98 0z m-638 -29 c73 -16 148 -50 225 -104 l65 -45 36 29 c20 16 66 45 102 64
203 111 426 82 575 -74 173 -181 173 -434 0 -694 -73 -110 -265 -309 -414
-430 -118 -95 -287 -215 -304 -215 -15 0 -230 157 -335 245 -286 240 -458 471
-499 671 -13 66 -14 92 -5 158 40 277 286 452 554 395z"/>
</g>
</svg>
